Genre:Action | Drama | Sci-Fi
Language:English
IMDb:http://www.imdb.com/title/tt1037154/
Source:NTSC DVDR

General
Complete name :Deadland.2009.DvDRip.XviD.Ac3.Feel-Free
Format : AVI
Format/Info : Audio Video Interleave
File size : 1.12 GiB
Duration : 1h 47mn
Overall bit rate : 1 487 Kbps
Video #0
Codec ID : XVID
Codec ID/Hint : XviD
Duration : 1h 47mn
Bit rate : 1 030 Kbps
Width : 720 pixels
Height : 304 pixels
Display aspect ratio : 2.35:1
Frame rate : 23.976 fps
Resolution : 24 bits
Colorimetry : 4:2:0
Scan type : Progressive
Bits/(Pixel*Frame) : 0.196
Stream size : 792 MiB (69%)
Writing library : XviD 1.2.1 (UTC 2008-12-04)
Audio #1
ID : 1
Format : AC-3
Format/Info : Audio Coding 3
Codec ID : 2000
Duration : 1h 47mn
Bit rate mode : Constant
Bit rate : 448 Kbps
Channel(s) : 6 channels
Channel positions : Front: L C R, Surround: L R, LFE
Sampling rate : 48.0 KHz
Stream size : 344 MiB (30%)
Alignment : Split accross interleaves
Interleave, duration : 42 ms (1.00 video frame)
Interleave, preload duration : 500 ms

Plot:
A man must cross post-world war III terrain and the new martial-law to save his missing wife.

screens
 
http://rapidhdd.com/images/363190vlcsnap-2010-11-19-12h16m22s204.png 
http://www.rapidhdd.com/images/395839vlcsnap-2010-11-19-12h17m10s167.png 
http://www.rapidhdd.com/images/164965vlcsnap-2010-11-19-12h18m03s191.png 
http://www.rapidhdd.com/images/96456vlcsnap-2010-11-19-12h18m41s50.png